<svg xmlns="http://www.w3.org/2000/svg" xmlns:xlink="http://www.w3.org/1999/xlink" version="1.1" x="0px" y="0px" viewBox="0 0 100 125" enable-background="new 0 0 100 100" xml:space="preserve"><g><path fill-rule="evenodd" clip-rule="evenodd" d="M80.37,68.344c-0.264,2.142-0.365,3.953-0.724,5.712   c-1.671,8.196-6.544,13.749-14.277,16.759c-9.57,3.725-19.204,3.719-28.769-0.009c-8.67-3.381-13.433-9.869-14.673-19.026   c-0.04-0.294-0.076-0.587-0.113-0.881c-0.154-0.001-0.308-0.002-0.462-0.002c0,1.772-0.032,3.545,0.01,5.317   c0.043,1.833,0.205,3.664,0.229,5.497c0.023,1.674,0.135,3.389-0.179,5.012c-0.211,1.09-0.859,2.496-1.736,2.964   c-1.313,0.701-3.071,0.335-4.049-0.895c-1.011-1.271-1.902-2.797-2.319-4.352c-1.006-3.751-0.745-7.571,0.109-11.347   c1.932-8.541,6.17-15.988,10.915-23.215c0.921-1.404,1.635-3.029,2.071-4.653c1.584-5.901,3.974-11.289,9.35-14.688   c1.858-1.175,4.058-1.811,6.108-2.676c0.361-0.152,0.756-0.223,1.337-0.388c-2.477-1.919-5.136-2.813-7.966-3.298   c-0.352-0.061-0.776,0.014-1.046-0.161c-0.478-0.308-0.863-0.759-1.288-1.151c0.537-0.241,1.098-0.732,1.605-0.682   c3.343,0.332,6.469,1.351,9.258,3.282c0.352,0.245,0.721,0.465,1.173,0.582c-1.524-2.752-3.867-4.602-6.602-6.013   c-0.677-0.35-1.46-0.528-2.074-0.956c-0.407-0.284-0.601-0.874-0.89-1.327c0.52-0.143,1.136-0.544,1.544-0.391   c4.531,1.702,8.215,4.45,10.507,8.834c0.193,0.369,0.418,0.719,0.775,0.995c-0.375-2.945-1.814-5.354-3.802-7.436   c-0.979-1.025-2.186-1.832-3.189-2.837c-0.34-0.34-0.373-0.986-0.546-1.492c0.534-0.021,1.227-0.27,1.577-0.027   c3.93,2.727,6.846,6.245,7.937,11.003c0.274,1.194,0.772,1.402,1.884,1.008c0.084-2.147-0.426-4.911,2.185-5.733   c1.942-0.612,4.232-0.12,6.489-0.12c0.375-1.019,0.478-2.036-0.58-3.015c-0.657-0.607-1.154-1.428-1.593-2.225   c-2.301-4.176,0.082-8.701,4.854-9.201c1.057-0.111,2.148-0.121,3.202,0.003c4.925,0.583,7.249,3.564,6.717,8.529   c-0.026,0.249-0.057,0.497-0.1,0.876c0.401-0.044,0.74-0.04,1.058-0.123c1.726-0.452,3.327-0.239,4.369,1.295   c0.912,1.342,1.708,2.869,0.829,4.552c-0.939,1.8-2.542,2.772-4.527,2.449c-1.659-0.271-2.284,0.461-2.71,1.777   c5.803,4.546,5.788,5.836-0.016,9.727c0.973,2.511,2.187,4.936,2.832,7.504c0.664,2.642,1.942,4.838,3.422,7.047   c4.642,6.926,8.588,14.197,10.425,22.434c0.831,3.724,1.101,7.499,0.091,11.196c-0.436,1.599-1.249,3.314-2.407,4.452   c-2.337,2.297-5.299,1.17-5.735-2.046c-0.225-1.651-0.244-3.354-0.144-5.021C80.976,77.396,81.094,73.039,80.37,68.344z    M49.974,64.741c-2.89,0.228-5.791,0.369-8.668,0.701C35.927,66.062,30.705,67.36,25.72,69.5c-0.449,0.193-1.002,0.922-0.964,1.354   c0.694,7.75,4.328,13.594,11.538,16.828c9.013,4.042,18.233,4.234,27.481,0.828c8.07-2.973,12.558-8.803,13.505-17.381   c0.115-1.043-0.18-1.412-1.105-1.728C67.683,66.495,58.965,64.93,49.974,64.741z M68.599,65.856   c0.486-2.649,1.101-5.117,1.364-7.623c0.544-5.186,0.255-10.268-2.559-14.912c-1.663-2.747-3.936-4.335-7.247-4.183   c-3.353,0.154-5.811,1.688-7.203,4.768c-0.57,1.26-0.997,2.585-1.438,3.746c-0.74-1.625-1.414-3.359-2.291-4.983   c-2.36-4.376-10.206-5.042-13.372,0.047c-3.028,4.868-3.47,10.125-2.897,15.583c0.246,2.349,0.814,4.664,1.251,7.081   C45.777,62.787,57.021,63.128,68.599,65.856z M65.357,8.249c-0.711,0.041-1.221,0.045-1.726,0.104   c-2.523,0.294-4.741,2.406-4.801,4.554c-0.069,2.459,2.412,5.655,4.655,6.039c3.199,0.549,6.16,1.682,8.804,3.607   c1.307,0.952,2.778,1.252,4.329,0.691c1.537-0.557,2.161-1.841,1.721-3.373c-0.616-2.148-1.886-2.785-4.226-2.12   c-1.685,0.48-2.247,0.003-2.124-1.748c0.06-0.859,0.143-1.732,0.053-2.582c-0.293-2.744-1.757-4.314-4.467-4.861   C66.781,8.401,65.968,8.333,65.357,8.249z M71.29,35.315c1.019-0.73,1.935-1.283,2.727-1.976c1.655-1.448,1.619-2.587-0.041-4.032   c-0.305-0.267-0.611-0.579-0.975-0.726c-5.066-2.046-10.144-4.066-15.218-6.091c-0.047-0.019-0.098-0.025-0.148-0.034   c-3.37-0.578-4.981,1.283-4.019,4.796C60.708,27.008,66.743,29.304,71.29,35.315z"/><path fill-rule="evenodd" clip-rule="evenodd" d="M51.487,75.031c-2.287-0.688-4.579-1.077-6.583-2.057   c-2.74-1.339-2.715-3.944,0.004-5.352c4.346-2.249,8.848-2.258,13.178,0.048c2.624,1.398,2.633,3.958-0.032,5.275   C56.056,73.934,53.767,74.333,51.487,75.031z"/><path fill-rule="evenodd" clip-rule="evenodd" d="M47.799,57.087c-0.509,1.459-0.818,3.033-1.574,4.351   c-1.116,1.945-3.164,2.018-4.724,0.398c-2.295-2.381-2.658-7.574-0.715-10.244c1.316-1.808,3.233-1.909,4.78-0.252   C46.741,52.599,47.489,54.793,47.799,57.087z"/><path fill-rule="evenodd" clip-rule="evenodd" d="M63.666,56.03c-0.318,2.178-0.777,4.135-2.199,5.729   c-1.549,1.739-3.543,1.574-4.859-0.341c-1.827-2.659-1.495-7.593,0.674-10.005c1.606-1.787,3.754-1.708,4.914,0.38   C62.91,53.081,63.19,54.609,63.666,56.03z"/></g><text x="0" y="115" fill="#000000" font-size="5px" font-weight="bold" font-family="'Helvetica Neue', Helvetica, Arial-Unicode, Arial, Sans-serif">Created by SoyGalem</text><text x="0" y="120" fill="#000000" font-size="5px" font-weight="bold" font-family="'Helvetica Neue', Helvetica, Arial-Unicode, Arial, Sans-serif">from the Noun Project</text></svg>